G04 #@! TF.GenerationSoftware,KiCad,Pcbnew,(5.1.5-0-10_14)*
G04 #@! TF.CreationDate,2021-06-11T11:39:42+02:00*
G04 #@! TF.ProjectId,ldr_led_platine,6c64725f-6c65-4645-9f70-6c6174696e65,rev?*
G04 #@! TF.SameCoordinates,Original*
G04 #@! TF.FileFunction,Copper,L1,Top*
G04 #@! TF.FilePolarity,Positive*
%FSLAX46Y46*%
G04 Gerber Fmt 4.6, Leading zero omitted, Abs format (unit mm)*
G04 Created by KiCad (PCBNEW (5.1.5-0-10_14)) date 2021-06-11 11:39:42*
%MOMM*%
%LPD*%
G04 APERTURE LIST*
%ADD10R,1.800000X1.800000*%
%ADD11C,1.800000*%
%ADD12R,2.600000X2.600000*%
%ADD13C,2.600000*%
%ADD14C,1.600000*%
%ADD15O,1.600000X1.600000*%
%ADD16C,0.800000*%
%ADD17C,0.250000*%
%ADD18C,0.500000*%
%ADD19C,0.254000*%
G04 APERTURE END LIST*
D10*
X153924000Y-79502000D03*
D11*
X153924000Y-82042000D03*
D12*
X128016000Y-80772000D03*
D13*
X128016000Y-75692000D03*
X128016000Y-70612000D03*
X128016000Y-65532000D03*
D14*
X154432000Y-65024000D03*
X151892000Y-65024000D03*
X135890000Y-82042000D03*
D15*
X148590000Y-82042000D03*
X135890000Y-64516000D03*
D14*
X148590000Y-64516000D03*
D16*
X134112000Y-76962000D03*
D17*
X153924000Y-82042000D02*
X148590000Y-82042000D01*
X128016000Y-80772000D02*
X128016000Y-81026000D01*
X128016000Y-81026000D02*
X129286000Y-81026000D01*
D18*
X130302000Y-80772000D02*
X134112000Y-76962000D01*
X128016000Y-80772000D02*
X130302000Y-80772000D01*
D17*
X151384000Y-64516000D02*
X151892000Y-65024000D01*
X148590000Y-64516000D02*
X151384000Y-64516000D01*
X129315999Y-71911999D02*
X132363999Y-71911999D01*
X128016000Y-70612000D02*
X129315999Y-71911999D01*
X135890000Y-75438000D02*
X135890000Y-82042000D01*
X132363999Y-71911999D02*
X135890000Y-75438000D01*
D19*
G36*
X156795001Y-84659000D02*
G01*
X121081000Y-84659000D01*
X121081000Y-79472000D01*
X126077928Y-79472000D01*
X126077928Y-82072000D01*
X126090188Y-82196482D01*
X126126498Y-82316180D01*
X126185463Y-82426494D01*
X126264815Y-82523185D01*
X126361506Y-82602537D01*
X126471820Y-82661502D01*
X126591518Y-82697812D01*
X126716000Y-82710072D01*
X129316000Y-82710072D01*
X129440482Y-82697812D01*
X129560180Y-82661502D01*
X129670494Y-82602537D01*
X129767185Y-82523185D01*
X129846537Y-82426494D01*
X129905502Y-82316180D01*
X129941812Y-82196482D01*
X129954072Y-82072000D01*
X129954072Y-81657000D01*
X130258531Y-81657000D01*
X130302000Y-81661281D01*
X130345469Y-81657000D01*
X130345477Y-81657000D01*
X130475490Y-81644195D01*
X130642313Y-81593589D01*
X130796059Y-81511411D01*
X130930817Y-81400817D01*
X130958534Y-81367044D01*
X134357044Y-77968535D01*
X134413898Y-77957226D01*
X134602256Y-77879205D01*
X134771774Y-77765937D01*
X134915937Y-77621774D01*
X135029205Y-77452256D01*
X135107226Y-77263898D01*
X135130000Y-77149403D01*
X135130001Y-80823956D01*
X134975241Y-80927363D01*
X134775363Y-81127241D01*
X134618320Y-81362273D01*
X134510147Y-81623426D01*
X134455000Y-81900665D01*
X134455000Y-82183335D01*
X134510147Y-82460574D01*
X134618320Y-82721727D01*
X134775363Y-82956759D01*
X134975241Y-83156637D01*
X135210273Y-83313680D01*
X135471426Y-83421853D01*
X135748665Y-83477000D01*
X136031335Y-83477000D01*
X136308574Y-83421853D01*
X136569727Y-83313680D01*
X136804759Y-83156637D01*
X137004637Y-82956759D01*
X137161680Y-82721727D01*
X137269853Y-82460574D01*
X137325000Y-82183335D01*
X137325000Y-81900665D01*
X147155000Y-81900665D01*
X147155000Y-82183335D01*
X147210147Y-82460574D01*
X147318320Y-82721727D01*
X147475363Y-82956759D01*
X147675241Y-83156637D01*
X147910273Y-83313680D01*
X148171426Y-83421853D01*
X148448665Y-83477000D01*
X148731335Y-83477000D01*
X149008574Y-83421853D01*
X149269727Y-83313680D01*
X149504759Y-83156637D01*
X149704637Y-82956759D01*
X149808043Y-82802000D01*
X152585687Y-82802000D01*
X152731688Y-83020505D01*
X152945495Y-83234312D01*
X153196905Y-83402299D01*
X153476257Y-83518011D01*
X153772816Y-83577000D01*
X154075184Y-83577000D01*
X154371743Y-83518011D01*
X154651095Y-83402299D01*
X154902505Y-83234312D01*
X155116312Y-83020505D01*
X155284299Y-82769095D01*
X155400011Y-82489743D01*
X155459000Y-82193184D01*
X155459000Y-81890816D01*
X155400011Y-81594257D01*
X155284299Y-81314905D01*
X155116312Y-81063495D01*
X155049873Y-80997056D01*
X155068180Y-80991502D01*
X155178494Y-80932537D01*
X155275185Y-80853185D01*
X155354537Y-80756494D01*
X155413502Y-80646180D01*
X155449812Y-80526482D01*
X155462072Y-80402000D01*
X155459000Y-79787750D01*
X155300250Y-79629000D01*
X154051000Y-79629000D01*
X154051000Y-79649000D01*
X153797000Y-79649000D01*
X153797000Y-79629000D01*
X152547750Y-79629000D01*
X152389000Y-79787750D01*
X152385928Y-80402000D01*
X152398188Y-80526482D01*
X152434498Y-80646180D01*
X152493463Y-80756494D01*
X152572815Y-80853185D01*
X152669506Y-80932537D01*
X152779820Y-80991502D01*
X152798127Y-80997056D01*
X152731688Y-81063495D01*
X152585687Y-81282000D01*
X149808043Y-81282000D01*
X149704637Y-81127241D01*
X149504759Y-80927363D01*
X149269727Y-80770320D01*
X149008574Y-80662147D01*
X148731335Y-80607000D01*
X148448665Y-80607000D01*
X148171426Y-80662147D01*
X147910273Y-80770320D01*
X147675241Y-80927363D01*
X147475363Y-81127241D01*
X147318320Y-81362273D01*
X147210147Y-81623426D01*
X147155000Y-81900665D01*
X137325000Y-81900665D01*
X137269853Y-81623426D01*
X137161680Y-81362273D01*
X137004637Y-81127241D01*
X136804759Y-80927363D01*
X136650000Y-80823957D01*
X136650000Y-78602000D01*
X152385928Y-78602000D01*
X152389000Y-79216250D01*
X152547750Y-79375000D01*
X153797000Y-79375000D01*
X153797000Y-78125750D01*
X154051000Y-78125750D01*
X154051000Y-79375000D01*
X155300250Y-79375000D01*
X155459000Y-79216250D01*
X155462072Y-78602000D01*
X155449812Y-78477518D01*
X155413502Y-78357820D01*
X155354537Y-78247506D01*
X155275185Y-78150815D01*
X155178494Y-78071463D01*
X155068180Y-78012498D01*
X154948482Y-77976188D01*
X154824000Y-77963928D01*
X154209750Y-77967000D01*
X154051000Y-78125750D01*
X153797000Y-78125750D01*
X153638250Y-77967000D01*
X153024000Y-77963928D01*
X152899518Y-77976188D01*
X152779820Y-78012498D01*
X152669506Y-78071463D01*
X152572815Y-78150815D01*
X152493463Y-78247506D01*
X152434498Y-78357820D01*
X152398188Y-78477518D01*
X152385928Y-78602000D01*
X136650000Y-78602000D01*
X136650000Y-75475322D01*
X136653676Y-75437999D01*
X136650000Y-75400676D01*
X136650000Y-75400667D01*
X136639003Y-75289014D01*
X136595546Y-75145753D01*
X136524974Y-75013724D01*
X136511811Y-74997685D01*
X136453799Y-74926996D01*
X136453795Y-74926992D01*
X136430001Y-74897999D01*
X136401009Y-74874206D01*
X132927803Y-71401002D01*
X132904000Y-71371998D01*
X132788275Y-71277025D01*
X132656246Y-71206453D01*
X132512985Y-71162996D01*
X132401332Y-71151999D01*
X132401321Y-71151999D01*
X132363999Y-71148323D01*
X132326677Y-71151999D01*
X129881496Y-71151999D01*
X129951000Y-70802581D01*
X129951000Y-70421419D01*
X129876639Y-70047581D01*
X129730775Y-69695434D01*
X129519013Y-69378509D01*
X129249491Y-69108987D01*
X128932566Y-68897225D01*
X128580419Y-68751361D01*
X128206581Y-68677000D01*
X127825419Y-68677000D01*
X127451581Y-68751361D01*
X127099434Y-68897225D01*
X126782509Y-69108987D01*
X126512987Y-69378509D01*
X126301225Y-69695434D01*
X126155361Y-70047581D01*
X126081000Y-70421419D01*
X126081000Y-70802581D01*
X126155361Y-71176419D01*
X126301225Y-71528566D01*
X126512987Y-71845491D01*
X126782509Y-72115013D01*
X127099434Y-72326775D01*
X127451581Y-72472639D01*
X127825419Y-72547000D01*
X128206581Y-72547000D01*
X128580419Y-72472639D01*
X128736985Y-72407787D01*
X128752199Y-72423001D01*
X128775998Y-72452000D01*
X128891723Y-72546973D01*
X129023752Y-72617545D01*
X129167013Y-72661002D01*
X129278666Y-72671999D01*
X129278675Y-72671999D01*
X129315998Y-72675675D01*
X129353321Y-72671999D01*
X132049198Y-72671999D01*
X135130000Y-75752803D01*
X135130000Y-76774597D01*
X135107226Y-76660102D01*
X135029205Y-76471744D01*
X134915937Y-76302226D01*
X134771774Y-76158063D01*
X134602256Y-76044795D01*
X134413898Y-75966774D01*
X134213939Y-75927000D01*
X134010061Y-75927000D01*
X133810102Y-75966774D01*
X133621744Y-76044795D01*
X133452226Y-76158063D01*
X133308063Y-76302226D01*
X133194795Y-76471744D01*
X133116774Y-76660102D01*
X133105465Y-76716956D01*
X129954072Y-79868350D01*
X129954072Y-79472000D01*
X129941812Y-79347518D01*
X129905502Y-79227820D01*
X129846537Y-79117506D01*
X129767185Y-79020815D01*
X129670494Y-78941463D01*
X129560180Y-78882498D01*
X129440482Y-78846188D01*
X129316000Y-78833928D01*
X126716000Y-78833928D01*
X126591518Y-78846188D01*
X126471820Y-78882498D01*
X126361506Y-78941463D01*
X126264815Y-79020815D01*
X126185463Y-79117506D01*
X126126498Y-79227820D01*
X126090188Y-79347518D01*
X126077928Y-79472000D01*
X121081000Y-79472000D01*
X121081000Y-75501419D01*
X126081000Y-75501419D01*
X126081000Y-75882581D01*
X126155361Y-76256419D01*
X126301225Y-76608566D01*
X126512987Y-76925491D01*
X126782509Y-77195013D01*
X127099434Y-77406775D01*
X127451581Y-77552639D01*
X127825419Y-77627000D01*
X128206581Y-77627000D01*
X128580419Y-77552639D01*
X128932566Y-77406775D01*
X129249491Y-77195013D01*
X129519013Y-76925491D01*
X129730775Y-76608566D01*
X129876639Y-76256419D01*
X129951000Y-75882581D01*
X129951000Y-75501419D01*
X129876639Y-75127581D01*
X129730775Y-74775434D01*
X129519013Y-74458509D01*
X129249491Y-74188987D01*
X128932566Y-73977225D01*
X128580419Y-73831361D01*
X128206581Y-73757000D01*
X127825419Y-73757000D01*
X127451581Y-73831361D01*
X127099434Y-73977225D01*
X126782509Y-74188987D01*
X126512987Y-74458509D01*
X126301225Y-74775434D01*
X126155361Y-75127581D01*
X126081000Y-75501419D01*
X121081000Y-75501419D01*
X121081000Y-66881224D01*
X126846381Y-66881224D01*
X126978317Y-67176312D01*
X127319045Y-67347159D01*
X127686557Y-67448250D01*
X128066729Y-67475701D01*
X128444951Y-67428457D01*
X128806690Y-67308333D01*
X129053683Y-67176312D01*
X129185619Y-66881224D01*
X128016000Y-65711605D01*
X126846381Y-66881224D01*
X121081000Y-66881224D01*
X121081000Y-65582729D01*
X126072299Y-65582729D01*
X126119543Y-65960951D01*
X126239667Y-66322690D01*
X126371688Y-66569683D01*
X126666776Y-66701619D01*
X127836395Y-65532000D01*
X128195605Y-65532000D01*
X129365224Y-66701619D01*
X129660312Y-66569683D01*
X129831159Y-66228955D01*
X129932250Y-65861443D01*
X129959701Y-65481271D01*
X129912457Y-65103049D01*
X129833421Y-64865039D01*
X134498096Y-64865039D01*
X134538754Y-64999087D01*
X134658963Y-65253420D01*
X134826481Y-65479414D01*
X135034869Y-65668385D01*
X135276119Y-65813070D01*
X135540960Y-65907909D01*
X135763000Y-65786624D01*
X135763000Y-64643000D01*
X136017000Y-64643000D01*
X136017000Y-65786624D01*
X136239040Y-65907909D01*
X136503881Y-65813070D01*
X136745131Y-65668385D01*
X136953519Y-65479414D01*
X137121037Y-65253420D01*
X137241246Y-64999087D01*
X137281904Y-64865039D01*
X137159915Y-64643000D01*
X136017000Y-64643000D01*
X135763000Y-64643000D01*
X134620085Y-64643000D01*
X134498096Y-64865039D01*
X129833421Y-64865039D01*
X129792333Y-64741310D01*
X129660312Y-64494317D01*
X129365224Y-64362381D01*
X128195605Y-65532000D01*
X127836395Y-65532000D01*
X126666776Y-64362381D01*
X126371688Y-64494317D01*
X126200841Y-64835045D01*
X126099750Y-65202557D01*
X126072299Y-65582729D01*
X121081000Y-65582729D01*
X121081000Y-64182776D01*
X126846381Y-64182776D01*
X128016000Y-65352395D01*
X129185619Y-64182776D01*
X129178548Y-64166961D01*
X134498096Y-64166961D01*
X134620085Y-64389000D01*
X135763000Y-64389000D01*
X135763000Y-63245376D01*
X136017000Y-63245376D01*
X136017000Y-64389000D01*
X137159915Y-64389000D01*
X137167790Y-64374665D01*
X147155000Y-64374665D01*
X147155000Y-64657335D01*
X147210147Y-64934574D01*
X147318320Y-65195727D01*
X147475363Y-65430759D01*
X147675241Y-65630637D01*
X147910273Y-65787680D01*
X148171426Y-65895853D01*
X148448665Y-65951000D01*
X148731335Y-65951000D01*
X149008574Y-65895853D01*
X149269727Y-65787680D01*
X149504759Y-65630637D01*
X149704637Y-65430759D01*
X149808043Y-65276000D01*
X150479013Y-65276000D01*
X150512147Y-65442574D01*
X150620320Y-65703727D01*
X150777363Y-65938759D01*
X150977241Y-66138637D01*
X151212273Y-66295680D01*
X151473426Y-66403853D01*
X151750665Y-66459000D01*
X152033335Y-66459000D01*
X152310574Y-66403853D01*
X152571727Y-66295680D01*
X152806759Y-66138637D01*
X153006637Y-65938759D01*
X153162000Y-65706241D01*
X153317363Y-65938759D01*
X153517241Y-66138637D01*
X153752273Y-66295680D01*
X154013426Y-66403853D01*
X154290665Y-66459000D01*
X154573335Y-66459000D01*
X154850574Y-66403853D01*
X155111727Y-66295680D01*
X155346759Y-66138637D01*
X155546637Y-65938759D01*
X155703680Y-65703727D01*
X155811853Y-65442574D01*
X155867000Y-65165335D01*
X155867000Y-64882665D01*
X155811853Y-64605426D01*
X155703680Y-64344273D01*
X155546637Y-64109241D01*
X155346759Y-63909363D01*
X155111727Y-63752320D01*
X154850574Y-63644147D01*
X154573335Y-63589000D01*
X154290665Y-63589000D01*
X154013426Y-63644147D01*
X153752273Y-63752320D01*
X153517241Y-63909363D01*
X153317363Y-64109241D01*
X153162000Y-64341759D01*
X153006637Y-64109241D01*
X152806759Y-63909363D01*
X152571727Y-63752320D01*
X152310574Y-63644147D01*
X152033335Y-63589000D01*
X151750665Y-63589000D01*
X151473426Y-63644147D01*
X151212273Y-63752320D01*
X151206765Y-63756000D01*
X149808043Y-63756000D01*
X149704637Y-63601241D01*
X149504759Y-63401363D01*
X149269727Y-63244320D01*
X149008574Y-63136147D01*
X148731335Y-63081000D01*
X148448665Y-63081000D01*
X148171426Y-63136147D01*
X147910273Y-63244320D01*
X147675241Y-63401363D01*
X147475363Y-63601241D01*
X147318320Y-63836273D01*
X147210147Y-64097426D01*
X147155000Y-64374665D01*
X137167790Y-64374665D01*
X137281904Y-64166961D01*
X137241246Y-64032913D01*
X137121037Y-63778580D01*
X136953519Y-63552586D01*
X136745131Y-63363615D01*
X136503881Y-63218930D01*
X136239040Y-63124091D01*
X136017000Y-63245376D01*
X135763000Y-63245376D01*
X135540960Y-63124091D01*
X135276119Y-63218930D01*
X135034869Y-63363615D01*
X134826481Y-63552586D01*
X134658963Y-63778580D01*
X134538754Y-64032913D01*
X134498096Y-64166961D01*
X129178548Y-64166961D01*
X129053683Y-63887688D01*
X128712955Y-63716841D01*
X128345443Y-63615750D01*
X127965271Y-63588299D01*
X127587049Y-63635543D01*
X127225310Y-63755667D01*
X126978317Y-63887688D01*
X126846381Y-64182776D01*
X121081000Y-64182776D01*
X121081000Y-61645000D01*
X156795000Y-61645000D01*
X156795001Y-84659000D01*
G37*
X156795001Y-84659000D02*
X121081000Y-84659000D01*
X121081000Y-79472000D01*
X126077928Y-79472000D01*
X126077928Y-82072000D01*
X126090188Y-82196482D01*
X126126498Y-82316180D01*
X126185463Y-82426494D01*
X126264815Y-82523185D01*
X126361506Y-82602537D01*
X126471820Y-82661502D01*
X126591518Y-82697812D01*
X126716000Y-82710072D01*
X129316000Y-82710072D01*
X129440482Y-82697812D01*
X129560180Y-82661502D01*
X129670494Y-82602537D01*
X129767185Y-82523185D01*
X129846537Y-82426494D01*
X129905502Y-82316180D01*
X129941812Y-82196482D01*
X129954072Y-82072000D01*
X129954072Y-81657000D01*
X130258531Y-81657000D01*
X130302000Y-81661281D01*
X130345469Y-81657000D01*
X130345477Y-81657000D01*
X130475490Y-81644195D01*
X130642313Y-81593589D01*
X130796059Y-81511411D01*
X130930817Y-81400817D01*
X130958534Y-81367044D01*
X134357044Y-77968535D01*
X134413898Y-77957226D01*
X134602256Y-77879205D01*
X134771774Y-77765937D01*
X134915937Y-77621774D01*
X135029205Y-77452256D01*
X135107226Y-77263898D01*
X135130000Y-77149403D01*
X135130001Y-80823956D01*
X134975241Y-80927363D01*
X134775363Y-81127241D01*
X134618320Y-81362273D01*
X134510147Y-81623426D01*
X134455000Y-81900665D01*
X134455000Y-82183335D01*
X134510147Y-82460574D01*
X134618320Y-82721727D01*
X134775363Y-82956759D01*
X134975241Y-83156637D01*
X135210273Y-83313680D01*
X135471426Y-83421853D01*
X135748665Y-83477000D01*
X136031335Y-83477000D01*
X136308574Y-83421853D01*
X136569727Y-83313680D01*
X136804759Y-83156637D01*
X137004637Y-82956759D01*
X137161680Y-82721727D01*
X137269853Y-82460574D01*
X137325000Y-82183335D01*
X137325000Y-81900665D01*
X147155000Y-81900665D01*
X147155000Y-82183335D01*
X147210147Y-82460574D01*
X147318320Y-82721727D01*
X147475363Y-82956759D01*
X147675241Y-83156637D01*
X147910273Y-83313680D01*
X148171426Y-83421853D01*
X148448665Y-83477000D01*
X148731335Y-83477000D01*
X149008574Y-83421853D01*
X149269727Y-83313680D01*
X149504759Y-83156637D01*
X149704637Y-82956759D01*
X149808043Y-82802000D01*
X152585687Y-82802000D01*
X152731688Y-83020505D01*
X152945495Y-83234312D01*
X153196905Y-83402299D01*
X153476257Y-83518011D01*
X153772816Y-83577000D01*
X154075184Y-83577000D01*
X154371743Y-83518011D01*
X154651095Y-83402299D01*
X154902505Y-83234312D01*
X155116312Y-83020505D01*
X155284299Y-82769095D01*
X155400011Y-82489743D01*
X155459000Y-82193184D01*
X155459000Y-81890816D01*
X155400011Y-81594257D01*
X155284299Y-81314905D01*
X155116312Y-81063495D01*
X155049873Y-80997056D01*
X155068180Y-80991502D01*
X155178494Y-80932537D01*
X155275185Y-80853185D01*
X155354537Y-80756494D01*
X155413502Y-80646180D01*
X155449812Y-80526482D01*
X155462072Y-80402000D01*
X155459000Y-79787750D01*
X155300250Y-79629000D01*
X154051000Y-79629000D01*
X154051000Y-79649000D01*
X153797000Y-79649000D01*
X153797000Y-79629000D01*
X152547750Y-79629000D01*
X152389000Y-79787750D01*
X152385928Y-80402000D01*
X152398188Y-80526482D01*
X152434498Y-80646180D01*
X152493463Y-80756494D01*
X152572815Y-80853185D01*
X152669506Y-80932537D01*
X152779820Y-80991502D01*
X152798127Y-80997056D01*
X152731688Y-81063495D01*
X152585687Y-81282000D01*
X149808043Y-81282000D01*
X149704637Y-81127241D01*
X149504759Y-80927363D01*
X149269727Y-80770320D01*
X149008574Y-80662147D01*
X148731335Y-80607000D01*
X148448665Y-80607000D01*
X148171426Y-80662147D01*
X147910273Y-80770320D01*
X147675241Y-80927363D01*
X147475363Y-81127241D01*
X147318320Y-81362273D01*
X147210147Y-81623426D01*
X147155000Y-81900665D01*
X137325000Y-81900665D01*
X137269853Y-81623426D01*
X137161680Y-81362273D01*
X137004637Y-81127241D01*
X136804759Y-80927363D01*
X136650000Y-80823957D01*
X136650000Y-78602000D01*
X152385928Y-78602000D01*
X152389000Y-79216250D01*
X152547750Y-79375000D01*
X153797000Y-79375000D01*
X153797000Y-78125750D01*
X154051000Y-78125750D01*
X154051000Y-79375000D01*
X155300250Y-79375000D01*
X155459000Y-79216250D01*
X155462072Y-78602000D01*
X155449812Y-78477518D01*
X155413502Y-78357820D01*
X155354537Y-78247506D01*
X155275185Y-78150815D01*
X155178494Y-78071463D01*
X155068180Y-78012498D01*
X154948482Y-77976188D01*
X154824000Y-77963928D01*
X154209750Y-77967000D01*
X154051000Y-78125750D01*
X153797000Y-78125750D01*
X153638250Y-77967000D01*
X153024000Y-77963928D01*
X152899518Y-77976188D01*
X152779820Y-78012498D01*
X152669506Y-78071463D01*
X152572815Y-78150815D01*
X152493463Y-78247506D01*
X152434498Y-78357820D01*
X152398188Y-78477518D01*
X152385928Y-78602000D01*
X136650000Y-78602000D01*
X136650000Y-75475322D01*
X136653676Y-75437999D01*
X136650000Y-75400676D01*
X136650000Y-75400667D01*
X136639003Y-75289014D01*
X136595546Y-75145753D01*
X136524974Y-75013724D01*
X136511811Y-74997685D01*
X136453799Y-74926996D01*
X136453795Y-74926992D01*
X136430001Y-74897999D01*
X136401009Y-74874206D01*
X132927803Y-71401002D01*
X132904000Y-71371998D01*
X132788275Y-71277025D01*
X132656246Y-71206453D01*
X132512985Y-71162996D01*
X132401332Y-71151999D01*
X132401321Y-71151999D01*
X132363999Y-71148323D01*
X132326677Y-71151999D01*
X129881496Y-71151999D01*
X129951000Y-70802581D01*
X129951000Y-70421419D01*
X129876639Y-70047581D01*
X129730775Y-69695434D01*
X129519013Y-69378509D01*
X129249491Y-69108987D01*
X128932566Y-68897225D01*
X128580419Y-68751361D01*
X128206581Y-68677000D01*
X127825419Y-68677000D01*
X127451581Y-68751361D01*
X127099434Y-68897225D01*
X126782509Y-69108987D01*
X126512987Y-69378509D01*
X126301225Y-69695434D01*
X126155361Y-70047581D01*
X126081000Y-70421419D01*
X126081000Y-70802581D01*
X126155361Y-71176419D01*
X126301225Y-71528566D01*
X126512987Y-71845491D01*
X126782509Y-72115013D01*
X127099434Y-72326775D01*
X127451581Y-72472639D01*
X127825419Y-72547000D01*
X128206581Y-72547000D01*
X128580419Y-72472639D01*
X128736985Y-72407787D01*
X128752199Y-72423001D01*
X128775998Y-72452000D01*
X128891723Y-72546973D01*
X129023752Y-72617545D01*
X129167013Y-72661002D01*
X129278666Y-72671999D01*
X129278675Y-72671999D01*
X129315998Y-72675675D01*
X129353321Y-72671999D01*
X132049198Y-72671999D01*
X135130000Y-75752803D01*
X135130000Y-76774597D01*
X135107226Y-76660102D01*
X135029205Y-76471744D01*
X134915937Y-76302226D01*
X134771774Y-76158063D01*
X134602256Y-76044795D01*
X134413898Y-75966774D01*
X134213939Y-75927000D01*
X134010061Y-75927000D01*
X133810102Y-75966774D01*
X133621744Y-76044795D01*
X133452226Y-76158063D01*
X133308063Y-76302226D01*
X133194795Y-76471744D01*
X133116774Y-76660102D01*
X133105465Y-76716956D01*
X129954072Y-79868350D01*
X129954072Y-79472000D01*
X129941812Y-79347518D01*
X129905502Y-79227820D01*
X129846537Y-79117506D01*
X129767185Y-79020815D01*
X129670494Y-78941463D01*
X129560180Y-78882498D01*
X129440482Y-78846188D01*
X129316000Y-78833928D01*
X126716000Y-78833928D01*
X126591518Y-78846188D01*
X126471820Y-78882498D01*
X126361506Y-78941463D01*
X126264815Y-79020815D01*
X126185463Y-79117506D01*
X126126498Y-79227820D01*
X126090188Y-79347518D01*
X126077928Y-79472000D01*
X121081000Y-79472000D01*
X121081000Y-75501419D01*
X126081000Y-75501419D01*
X126081000Y-75882581D01*
X126155361Y-76256419D01*
X126301225Y-76608566D01*
X126512987Y-76925491D01*
X126782509Y-77195013D01*
X127099434Y-77406775D01*
X127451581Y-77552639D01*
X127825419Y-77627000D01*
X128206581Y-77627000D01*
X128580419Y-77552639D01*
X128932566Y-77406775D01*
X129249491Y-77195013D01*
X129519013Y-76925491D01*
X129730775Y-76608566D01*
X129876639Y-76256419D01*
X129951000Y-75882581D01*
X129951000Y-75501419D01*
X129876639Y-75127581D01*
X129730775Y-74775434D01*
X129519013Y-74458509D01*
X129249491Y-74188987D01*
X128932566Y-73977225D01*
X128580419Y-73831361D01*
X128206581Y-73757000D01*
X127825419Y-73757000D01*
X127451581Y-73831361D01*
X127099434Y-73977225D01*
X126782509Y-74188987D01*
X126512987Y-74458509D01*
X126301225Y-74775434D01*
X126155361Y-75127581D01*
X126081000Y-75501419D01*
X121081000Y-75501419D01*
X121081000Y-66881224D01*
X126846381Y-66881224D01*
X126978317Y-67176312D01*
X127319045Y-67347159D01*
X127686557Y-67448250D01*
X128066729Y-67475701D01*
X128444951Y-67428457D01*
X128806690Y-67308333D01*
X129053683Y-67176312D01*
X129185619Y-66881224D01*
X128016000Y-65711605D01*
X126846381Y-66881224D01*
X121081000Y-66881224D01*
X121081000Y-65582729D01*
X126072299Y-65582729D01*
X126119543Y-65960951D01*
X126239667Y-66322690D01*
X126371688Y-66569683D01*
X126666776Y-66701619D01*
X127836395Y-65532000D01*
X128195605Y-65532000D01*
X129365224Y-66701619D01*
X129660312Y-66569683D01*
X129831159Y-66228955D01*
X129932250Y-65861443D01*
X129959701Y-65481271D01*
X129912457Y-65103049D01*
X129833421Y-64865039D01*
X134498096Y-64865039D01*
X134538754Y-64999087D01*
X134658963Y-65253420D01*
X134826481Y-65479414D01*
X135034869Y-65668385D01*
X135276119Y-65813070D01*
X135540960Y-65907909D01*
X135763000Y-65786624D01*
X135763000Y-64643000D01*
X136017000Y-64643000D01*
X136017000Y-65786624D01*
X136239040Y-65907909D01*
X136503881Y-65813070D01*
X136745131Y-65668385D01*
X136953519Y-65479414D01*
X137121037Y-65253420D01*
X137241246Y-64999087D01*
X137281904Y-64865039D01*
X137159915Y-64643000D01*
X136017000Y-64643000D01*
X135763000Y-64643000D01*
X134620085Y-64643000D01*
X134498096Y-64865039D01*
X129833421Y-64865039D01*
X129792333Y-64741310D01*
X129660312Y-64494317D01*
X129365224Y-64362381D01*
X128195605Y-65532000D01*
X127836395Y-65532000D01*
X126666776Y-64362381D01*
X126371688Y-64494317D01*
X126200841Y-64835045D01*
X126099750Y-65202557D01*
X126072299Y-65582729D01*
X121081000Y-65582729D01*
X121081000Y-64182776D01*
X126846381Y-64182776D01*
X128016000Y-65352395D01*
X129185619Y-64182776D01*
X129178548Y-64166961D01*
X134498096Y-64166961D01*
X134620085Y-64389000D01*
X135763000Y-64389000D01*
X135763000Y-63245376D01*
X136017000Y-63245376D01*
X136017000Y-64389000D01*
X137159915Y-64389000D01*
X137167790Y-64374665D01*
X147155000Y-64374665D01*
X147155000Y-64657335D01*
X147210147Y-64934574D01*
X147318320Y-65195727D01*
X147475363Y-65430759D01*
X147675241Y-65630637D01*
X147910273Y-65787680D01*
X148171426Y-65895853D01*
X148448665Y-65951000D01*
X148731335Y-65951000D01*
X149008574Y-65895853D01*
X149269727Y-65787680D01*
X149504759Y-65630637D01*
X149704637Y-65430759D01*
X149808043Y-65276000D01*
X150479013Y-65276000D01*
X150512147Y-65442574D01*
X150620320Y-65703727D01*
X150777363Y-65938759D01*
X150977241Y-66138637D01*
X151212273Y-66295680D01*
X151473426Y-66403853D01*
X151750665Y-66459000D01*
X152033335Y-66459000D01*
X152310574Y-66403853D01*
X152571727Y-66295680D01*
X152806759Y-66138637D01*
X153006637Y-65938759D01*
X153162000Y-65706241D01*
X153317363Y-65938759D01*
X153517241Y-66138637D01*
X153752273Y-66295680D01*
X154013426Y-66403853D01*
X154290665Y-66459000D01*
X154573335Y-66459000D01*
X154850574Y-66403853D01*
X155111727Y-66295680D01*
X155346759Y-66138637D01*
X155546637Y-65938759D01*
X155703680Y-65703727D01*
X155811853Y-65442574D01*
X155867000Y-65165335D01*
X155867000Y-64882665D01*
X155811853Y-64605426D01*
X155703680Y-64344273D01*
X155546637Y-64109241D01*
X155346759Y-63909363D01*
X155111727Y-63752320D01*
X154850574Y-63644147D01*
X154573335Y-63589000D01*
X154290665Y-63589000D01*
X154013426Y-63644147D01*
X153752273Y-63752320D01*
X153517241Y-63909363D01*
X153317363Y-64109241D01*
X153162000Y-64341759D01*
X153006637Y-64109241D01*
X152806759Y-63909363D01*
X152571727Y-63752320D01*
X152310574Y-63644147D01*
X152033335Y-63589000D01*
X151750665Y-63589000D01*
X151473426Y-63644147D01*
X151212273Y-63752320D01*
X151206765Y-63756000D01*
X149808043Y-63756000D01*
X149704637Y-63601241D01*
X149504759Y-63401363D01*
X149269727Y-63244320D01*
X149008574Y-63136147D01*
X148731335Y-63081000D01*
X148448665Y-63081000D01*
X148171426Y-63136147D01*
X147910273Y-63244320D01*
X147675241Y-63401363D01*
X147475363Y-63601241D01*
X147318320Y-63836273D01*
X147210147Y-64097426D01*
X147155000Y-64374665D01*
X137167790Y-64374665D01*
X137281904Y-64166961D01*
X137241246Y-64032913D01*
X137121037Y-63778580D01*
X136953519Y-63552586D01*
X136745131Y-63363615D01*
X136503881Y-63218930D01*
X136239040Y-63124091D01*
X136017000Y-63245376D01*
X135763000Y-63245376D01*
X135540960Y-63124091D01*
X135276119Y-63218930D01*
X135034869Y-63363615D01*
X134826481Y-63552586D01*
X134658963Y-63778580D01*
X134538754Y-64032913D01*
X134498096Y-64166961D01*
X129178548Y-64166961D01*
X129053683Y-63887688D01*
X128712955Y-63716841D01*
X128345443Y-63615750D01*
X127965271Y-63588299D01*
X127587049Y-63635543D01*
X127225310Y-63755667D01*
X126978317Y-63887688D01*
X126846381Y-64182776D01*
X121081000Y-64182776D01*
X121081000Y-61645000D01*
X156795000Y-61645000D01*
X156795001Y-84659000D01*
M02*
